<svg width="3155" height="1040" viewBox="0 0 3155 1040" fill="none" xmlns="http://www.w3.org/2000/svg">
<path d="M427.548 353.599C427.534 373.873 434.962 393.447 448.424 408.609L453.667 414.139V328.931L460.874 406.345C474.232 390.056 480.917 369.308 479.58 348.286C478.242 327.263 468.982 307.529 453.667 293.064C445.43 300.852 438.867 310.236 434.376 320.644C429.886 331.051 427.562 342.264 427.548 353.599Z" fill="white"/>
<path d="M149.475 496.922C167.329 501.189 183.011 511.827 193.575 526.838L197.263 532.65L122.251 514.636L188.915 537.322C171.776 545.668 152.107 547.192 133.886 541.587C115.666 535.982 100.256 523.665 90.7744 507.13C99.3464 501.518 108.975 497.718 119.07 495.962C129.164 494.207 139.511 494.533 149.475 496.922Z" fill="white"/>
<path d="M731.566 698.263C720.285 696.987 709.251 694.074 698.81 689.616C672.439 677.138 656.415 660.265 644.644 643.818C636.987 633.609 630.32 621.846 623.516 610.929L615.15 597.887C630.603 601.286 645.209 607.669 659.25 614.754C677.964 624.254 696.113 635.171 715.969 642.376C739.391 650.741 765.738 648.898 788.855 639.686C765.03 646.892 739.085 646.208 718.095 636.282C699.663 627.773 683.069 615.727 664.643 604.384C655.707 598.854 646.212 593.467 636.14 589.072C648.194 585.811 661.364 584.814 673.976 585.811C697.399 586.946 717.938 592.47 733.109 595.022C736.112 595.449 739.349 595.875 742.718 596.157C745.841 596.446 765.834 598.001 772.357 598.427C791.497 599.562 814.469 599.028 841.699 590.771H841.982C842.146 590.657 842.347 590.606 842.546 590.627C843.255 590.345 843.963 590.062 844.534 589.78L846.66 588.928C846.91 588.874 847.15 588.779 847.369 588.645H847.651C847.513 588.645 847.651 588.789 847.795 588.928C847.795 589.21 847.933 589.354 847.933 589.636C848.222 590.345 848.36 591.053 848.648 591.762C848.786 592.362 849.068 593.041 849.212 593.749C849.212 594.032 849.357 594.314 849.357 594.602V595.022C854.161 622.813 839.429 658.397 805.256 681.083C784.837 694.696 759.012 701.356 731.517 698.239L731.566 698.263Z" fill="white"/>
<path d="M757.799 496.922C739.969 501.157 724.322 511.806 713.843 526.838L710.155 532.65L785.023 514.636L718.359 537.322C734.047 544.925 751.88 546.879 768.843 542.853C778.81 540.479 788.182 536.083 796.377 529.937C804.573 523.791 811.418 516.026 816.487 507.124C807.916 501.516 798.289 497.718 788.197 495.964C778.104 494.209 767.76 494.535 757.799 496.922Z" fill="white"/>
<path d="M176.423 698.264C187.7 696.97 198.732 694.057 209.178 689.617C235.411 677.139 251.573 660.265 263.344 643.818C270.857 633.61 277.662 621.846 284.328 610.929L292.694 597.887C277.379 601.286 262.635 607.669 248.594 614.755C229.88 624.254 211.73 635.171 192.02 642.377C168.597 650.741 142.106 648.898 118.989 639.687C118.563 639.542 118.281 639.404 117.854 639.26L119.134 639.687C142.952 646.892 168.903 646.208 189.749 636.282C208.193 627.827 224.913 615.751 243.351 604.408C252.442 598.576 261.972 593.456 271.854 589.096C259.462 585.879 246.615 584.777 233.856 585.835C210.601 586.97 189.9 592.495 174.867 595.047C171.864 595.473 168.627 595.899 165.222 596.182C162.105 596.47 141.967 598.025 135.589 598.451C116.305 599.586 93.3328 599.052 66.1027 590.795H65.9645C65.7474 590.679 65.5011 590.629 65.2559 590.651C64.6553 590.369 63.9766 590.087 63.268 589.805C62.5593 589.522 61.9947 589.204 61.2861 588.952C60.9978 588.952 60.8596 588.814 60.5774 588.67H60.2891C60.2795 588.778 60.2303 588.878 60.151 588.952C60.151 589.234 59.8687 589.378 59.8687 589.66C59.7246 590.369 59.4423 591.078 59.2681 591.786C58.9858 592.387 58.8417 593.065 58.5594 593.774C58.5594 594.056 58.4153 594.338 58.4153 594.626V595.047C53.6107 622.837 68.3428 658.422 102.516 681.108C122.935 694.721 148.886 701.38 176.254 698.264H176.423Z" fill="white"/>
<path d="M893.787 403.367C888.346 413.319 881.564 422.478 873.632 430.586C852.221 450.438 830.667 459.085 810.956 464.045C798.764 467.306 785.431 469.149 772.669 471.419L757.498 474.422C766.291 461.379 777.636 450.036 789.545 439.684C805.286 425.789 822.018 412.89 836.054 397.152C852.504 378.579 860.587 353.316 860.443 328.39C858.317 353.34 848.107 377.162 831.231 392.9C816.487 406.933 799.046 417.994 781.744 430.893C773.378 437.132 764.874 443.935 757.072 451.735C758.489 439.257 762.477 426.785 767.99 415.298C777.636 394.035 790.398 376.867 798.338 363.693C799.893 361.141 801.455 358.288 803.016 355.328C804.433 352.494 813.226 334.341 816.061 328.529C824.144 311.115 832.084 289.539 834.492 261.184C834.492 261.046 834.492 261.046 834.636 260.902V260.332V258.206V256.074V255.228C834.781 255.084 834.781 254.939 834.636 254.939C834.781 255.084 834.919 254.939 835.063 254.939H835.796C836.498 255.059 837.21 255.107 837.922 255.084C838.63 255.228 839.339 255.228 840.048 255.366C840.339 255.342 840.633 255.392 840.9 255.51C840.956 255.565 841.023 255.606 841.097 255.631C841.171 255.656 841.25 255.664 841.327 255.654C868.953 261.467 896.628 288.26 904.988 328.384C910.093 352.344 906.832 378.855 893.787 403.24V403.367Z" fill="white"/>
<path d="M13.4922 403.367C18.9282 413.318 25.7038 422.476 33.6295 430.586C55.0461 450.438 76.5948 459.091 96.2997 464.045C108.497 467.306 121.824 469.149 134.586 471.419L149.763 474.422C140.971 461.379 129.626 450.036 117.716 439.684C101.975 425.765 85.2431 412.854 71.2016 397.128C54.7578 378.555 46.6741 353.292 46.8122 328.366C48.9442 353.316 59.154 377.138 76.0242 392.876C90.7744 406.909 108.215 417.97 125.512 430.869C133.878 437.108 142.388 443.911 150.189 451.711C148.766 439.233 144.784 426.761 139.271 415.274C129.626 394.011 116.863 376.843 108.924 363.669C107.362 361.117 105.801 358.264 104.245 355.304C102.828 352.47 94.0355 334.317 91.2008 328.504C83.1171 311.091 75.1774 289.515 72.7631 261.16C72.7631 261.022 72.7631 261.022 72.625 260.878V260.332V258.206V256.074V255.228C72.4808 255.084 72.4808 254.939 72.625 254.939C72.4808 255.084 72.3367 254.939 72.1986 254.939H71.4899C70.7879 255.059 70.0756 255.107 69.3638 255.084C68.6492 255.228 67.9405 255.228 67.2318 255.366C66.942 255.343 66.651 255.393 66.385 255.51C66.3291 255.564 66.2619 255.605 66.1881 255.63C66.1143 255.655 66.0359 255.663 65.9586 255.654C38.3321 261.467 10.6575 288.26 2.29747 328.384C-2.80743 352.344 0.453697 378.855 13.4982 403.24L13.4922 403.367Z" fill="white"/>
<path d="M807.995 749.725C807.995 749.725 676.691 804.02 598.7 778.788C529.928 756.672 544.816 719.941 548.077 708.039C557.296 675.013 608.201 663.099 633.726 694.288C694.984 769.426 807.995 749.725 807.995 749.725Z" fill="white"/>
<path d="M99.1404 750.151C99.1404 750.151 230.306 804.597 308.435 779.358C377.069 757.098 362.319 720.511 359.058 708.616C349.839 675.589 298.934 663.525 273.41 694.72C212.013 769.859 99.1404 750.151 99.1404 750.151Z" fill="white"/>
<path d="M385.856 274.065C389.029 281.874 391.128 290.077 392.096 298.451C393.375 320.14 388.126 336.587 381.604 350.2C377.778 358.847 372.529 367.356 367.85 375.721L362.319 385.929C358.914 374.724 357.923 362.816 357.514 351.047C356.95 335.434 357.514 319.72 355.112 304.263C352.109 285.973 341.497 269.387 327.035 257.762C340.362 270.66 349.299 287.786 350.458 304.972C351.449 319.984 349.605 335.314 348.896 351.335C348.356 359.364 348.45 367.424 349.178 375.438C342.619 368.525 337.253 360.571 333.299 351.899C325.642 336.287 321.81 320.849 318.129 310.076C317.276 307.95 316.423 305.68 315.288 303.411C314.441 301.285 308.201 287.678 306.213 283.282C299.973 270.378 291.325 255.66 276.184 240.888V240.744L275.758 240.324C275.318 240.07 274.932 239.731 274.623 239.327C274.197 239.045 273.77 238.619 273.35 238.336L272.923 237.91C272.779 237.91 272.779 237.772 272.635 237.772C272.779 237.91 272.779 237.772 272.779 237.628C273.061 237.484 273.061 237.346 273.206 237.201C273.619 236.86 273.999 236.48 274.341 236.067C274.684 235.654 275.064 235.275 275.476 234.932C275.636 234.758 275.828 234.615 276.04 234.511L276.184 234.367C292.634 221.157 321.132 217.92 348.218 232.097C364.385 240.462 378.138 254.916 385.934 273.921L385.856 274.065Z" fill="white"/>
<path d="M521.988 274.065C518.751 281.853 516.65 290.065 515.748 298.45C514.469 320.14 519.574 336.731 526.096 350.338C530.066 358.847 535.315 367.494 539.994 375.72L545.525 385.929C548.786 374.724 549.921 362.816 550.33 351.191C550.894 335.452 550.33 319.858 552.732 304.407C555.567 286.117 566.347 269.525 580.665 257.762C580.953 257.618 581.091 257.335 581.373 257.161C581.235 257.444 580.953 257.588 580.665 257.87C567.338 270.804 558.431 287.954 557.434 305.116C556.299 320.128 558.287 335.314 558.996 351.473C559.468 359.458 559.373 367.467 558.714 375.438C565.236 368.773 570.479 360.546 574.455 351.899C582.112 336.449 585.938 320.993 589.769 310.22C590.478 308.088 591.469 305.824 592.46 303.555C593.451 301.429 599.553 287.816 601.679 283.42C607.775 270.522 616.423 255.798 631.6 241.032C631.738 240.888 631.738 240.888 631.738 240.744C631.882 240.744 631.882 240.606 632.02 240.462C632.446 240.18 632.873 239.753 633.299 239.471C633.726 239.189 634.152 238.763 634.572 238.48L634.999 238.054C634.999 238.016 635.014 237.979 635.041 237.952C635.068 237.925 635.105 237.91 635.143 237.91C634.999 237.91 634.999 237.772 634.999 237.628C634.861 237.628 634.717 237.345 634.572 237.345C634.152 236.919 633.864 236.493 633.443 236.066C633.155 235.784 632.735 235.358 632.308 234.932C632.164 234.932 632.02 234.649 631.882 234.649C631.738 234.511 631.738 234.511 631.6 234.511C615.15 221.301 586.646 218.064 559.705 232.241C543.537 240.606 529.784 255.06 521.988 274.065Z" fill="white"/>
<path d="M432.935 146.18C430.382 147.741 443.145 161.919 439.601 179.921C437.331 191.691 429.818 195.66 422.725 206.859C416.629 216.503 410.533 232.079 412.659 257.473C402.28 249.57 394.119 239.121 388.967 227.137C380.456 206.577 384 188.148 385.705 179.921C390.81 154.407 402.293 152.701 409.242 129.307C417.608 100.952 404.437 92.1608 409.242 68.4838C419.037 21.5561 484.266 -5.68172 490.224 1.00164C494.338 5.39717 469.522 21.5561 466.681 55.045C464.417 80.5655 476.326 102.117 480.152 109.088C492.35 131.066 501.142 129.361 510.499 146.234C531.063 182.954 516.031 239.807 497.028 244.059C489.653 245.62 482.422 239.255 480.152 237.255C465.138 224.045 474.339 205.784 463.282 179.975C453.781 157.577 435.655 144.391 432.935 146.234V146.18Z" fill="white"/>
<path d="M717.104 214.659C717.104 214.659 728.449 239.471 720.107 255.348C715.002 264.71 709.326 264.421 702.69 275.626C697.014 284.982 691.063 301.711 696.732 307.668C704.672 315.606 735.019 305.116 752.033 284.411C754.436 281.409 771.744 259.744 766.639 234.932C762.814 216.647 751.024 217.067 743.385 194.243C741.259 187.866 734.028 166.315 743.385 147.742C751.607 131.15 768.339 126.046 766.639 121.513C765.078 117.543 750.189 117.97 737.571 121.513C702.69 131.15 673.31 166.741 664.83 205.868C657.454 239.327 664.541 278.887 676.457 281.439C680.426 282.43 684.679 279.037 685.105 278.599C692.912 272.222 688.108 260.452 690.919 246.557C694.606 228.699 717.152 214.659 717.152 214.659H717.104Z" fill="white"/>
<path d="M650.175 382.668C634.999 399.536 626.206 421.94 625.215 445.472V454.288L688.6 383.112L636.56 453.687C656.98 450.991 675.982 440.783 690.3 424.762C707.32 405.624 716.395 379.678 715.26 353.166C690.726 352.878 667.214 363.513 650.175 382.656V382.668Z" fill="white"/>
<path d="M257.104 382.668C272.275 399.536 281.067 421.94 282.058 445.472V454.288L218.673 383.088L270.719 453.687C250.3 450.991 231.297 440.783 216.974 424.762C199.959 405.624 190.885 379.678 192.02 353.166C216.547 352.878 240.066 363.513 257.104 382.656V382.668Z" fill="white"/>
<path d="M190.032 214.659C190.032 214.659 178.687 239.471 187.029 255.348C192.134 264.71 197.809 264.421 204.446 275.626C210.121 284.982 216.073 301.711 210.259 307.668C202.452 315.606 172.116 305.116 155.102 284.411C152.7 281.409 135.391 259.744 140.496 234.932C144.322 216.647 156.111 217.067 163.75 194.243C165.876 187.866 173.107 166.315 163.75 147.742C155.529 131.15 138.796 126.046 140.496 121.513C142.058 117.543 156.946 117.97 169.564 121.513C204.445 131.15 233.826 166.741 242.306 205.868C249.681 239.327 242.594 278.887 230.679 281.439C226.709 282.43 222.457 279.037 221.892 278.599C214.235 272.222 219.052 260.452 216.073 246.557C212.529 228.699 189.984 214.659 189.984 214.659H190.032Z" fill="white"/>
<path d="M524.15 499.924C524.15 539.676 491.803 571.91 452.081 571.91C412.359 571.91 380.012 539.676 380.012 499.924C380.012 480.813 387.605 462.485 401.121 448.971C414.636 435.458 432.967 427.866 452.081 427.866C471.195 427.866 489.526 435.458 503.042 448.971C516.557 462.485 524.15 480.813 524.15 499.924Z" fill="white"/>
<path d="M451.607 902.679C446.802 859.643 438.256 817.014 427.914 784.744C423.518 771.023 423.506 771.192 431.007 744.921C435.812 728.071 446.19 700.341 451.667 689.676L454.069 685.022L459.703 697.885C471.528 724.906 482.723 761.836 480.723 767.234C477.36 776.278 468.573 808.974 464.862 826.232C460.321 847.393 455.162 880.876 453.547 899.689L452.568 911.098L451.607 902.679Z" fill="white"/>
<path d="M412.389 741.054C394.69 696.324 367.16 649.228 335.738 609.909C297.937 562.615 259.464 527.577 195.287 482.006C176.423 468.609 173.492 466.141 176.465 466.159C180.068 466.159 198.218 471.131 211.16 475.623C275.073 497.787 346.422 545.279 392.396 596.212C413.837 619.967 426.521 637.044 441.205 662.006L449.487 676.064L445.283 684.392C436.706 701.422 426.839 728.228 420.467 751.863L418.923 757.585L412.389 741.054Z" fill="white"/>
<path d="M484.062 740.976C480.11 726.774 471.27 703.199 464.699 689.334L458.327 675.865L463.684 666.468C507.845 589.006 584.268 523.223 675.502 484.162C697.002 474.956 730.268 464.946 730.268 467.702C730.268 468.063 720.917 474.704 709.488 482.462C665.112 512.582 635.485 536.578 605.589 566.584C555.362 617.024 518.793 671.578 493.317 734.064C490.35 741.348 487.551 747.701 487.107 748.175C486.662 748.65 485.305 745.401 484.044 740.97L484.062 740.976Z" fill="white"/>
<path d="M458.88 996.961C456.982 919.217 464.069 854.749 481.233 793.698L485.125 779.845L486.59 787.909C497.671 848.804 493.347 927.383 475.636 988.272C471.516 1002.43 462.718 1025.56 460.676 1027.6C460.111 1028.16 459.306 1014.39 458.874 996.979L458.88 996.961Z" fill="white"/>
<path d="M442.586 1018.33C431.133 991.118 422.599 955.57 417.542 914.125C414.539 889.505 414.539 836.14 417.542 811.16C418.743 801.222 420.137 792.653 420.647 792.119C421.68 791.032 427.343 811.004 432.106 832.555C443.067 882.143 447.619 931.466 446.964 993.604L446.604 1027.92L442.586 1018.33Z" fill="white"/>
<path d="M1183.91 280.4C1165.72 280.28 1147.69 283.758 1130.85 290.634C1114.01 297.51 1098.7 307.648 1085.8 320.464C1072.9 333.281 1062.65 348.522 1055.67 365.312C1048.68 382.101 1045.08 400.106 1045.08 418.292C1045.08 436.477 1048.68 454.482 1055.67 471.272C1062.65 488.061 1072.9 503.303 1085.8 516.119C1098.7 528.935 1114.01 539.073 1130.85 545.949C1147.69 552.825 1165.72 556.303 1183.91 556.183H1190.06V617.312H1327.98C1337.01 617.336 1346.03 616.859 1355.01 615.883C1403.82 609.728 1439.36 581.295 1439.36 523.487C1439.36 463.781 1397.19 439.143 1335.11 435.354C1367.81 432.04 1428.94 417.814 1428.94 356.217C1428.94 312.147 1393.88 288.458 1348.86 282.304C1339.37 280.88 1316.62 280.4 1308.09 280.4H1183.91ZM1183.91 291.317H1190.06V553.367H1183.91C1109.5 553.367 1065.22 492.718 1065.22 418.295C1065.22 343.871 1141.04 291.317 1183.91 291.317ZM1249.3 290.716L1281.53 290.32C1298.12 291.269 1314.7 289.677 1321.34 292.049C1358.78 300.108 1367.78 327.346 1367.78 356.253C1367.78 403.163 1350.72 423.507 1321.34 430.641L1318.5 431.115C1308.55 433.517 1299.06 433.955 1249.3 434.43V290.716ZM1249.3 437.744C1302.85 437.744 1309.49 437.744 1317.55 438.693H1320.39C1363.98 444.38 1378.21 472.812 1378.21 523.037C1378.21 569.472 1359.73 602.649 1322.29 609.758C1314.23 612.124 1298.59 613.073 1286.25 613.547L1249.29 614.022V437.72L1249.3 437.744Z" fill="white"/>
<path d="M1560.2 426.827C1561.01 426.79 1561.83 426.808 1562.64 426.882C1562.13 427.038 1550.48 428.953 1544.57 430.629C1503.2 442.338 1470.61 472.302 1470.61 526.345C1470.61 591.738 1525.1 623.023 1579.6 623.023C1634.11 623.023 1688.61 591.732 1688.61 526.345C1688.61 457.638 1635.05 426.845 1579.6 426.845L1560.2 426.827ZM1579.62 430.142C1620.38 430.142 1626.54 463.313 1626.54 500.272V551.914C1626.54 588.399 1622.75 619.678 1579.62 619.678C1536.02 619.678 1532.7 588.399 1532.7 551.914V500.272C1532.7 463.295 1538.39 430.142 1579.62 430.142Z" fill="white"/>
<path d="M1822.27 420.775C1773.03 420.775 1738.23 447.67 1738.23 493.637C1738.23 497.901 1738.23 499.798 1738.7 502.644L1750.11 502.17C1749.64 499.33 1749.64 497.432 1749.64 493.643C1749.64 449.099 1788.65 430.148 1822.31 430.148C1858.34 430.148 1862.12 457.626 1862.12 492.214V505.485H1847.9C1791.51 505.485 1719.47 515.915 1719.47 567.088C1719.47 607.843 1755.96 622.993 1814.25 622.993C1830.37 622.993 1858.33 611.626 1862.12 581.776C1862.12 675.595 1931.32 758.99 2037.49 758.99C2113.76 758.99 2112.37 752.181 2037.49 752.181C1943.66 752.181 1921.85 682.219 1921.85 585.553V501.678C1921.85 449.081 1881.09 420.763 1822.32 420.763L1822.27 420.775ZM1862.08 508.793V551.914C1862.08 578.449 1856.87 614.076 1814.22 614.076C1784.36 614.076 1781.99 589.354 1781.99 567.082C1781.99 525.859 1811.85 511.64 1862.08 508.793Z" fill="white"/>
<path d="M2052.13 283.252H2056.87V552.388" fill="white"/>
<path d="M2882.91 420.775C2833.66 420.775 2798.86 447.67 2798.86 493.637C2798.86 497.901 2798.86 499.798 2799.34 502.644L2810.76 502.17C2810.28 499.33 2810.28 497.432 2810.28 493.643C2810.28 449.099 2849.32 430.148 2882.95 430.148C2918.99 430.148 2922.77 457.626 2922.77 492.214V505.485H2908.51C2852.11 505.485 2780.07 515.915 2780.07 567.088C2780.07 607.843 2816.56 622.993 2874.85 622.993C2890.97 622.993 2918.93 611.626 2922.73 581.776C2922.73 675.595 2991.92 758.99 3098.1 758.99C3174.37 758.99 3172.98 752.181 3098.1 752.181C3004.26 752.181 2982.46 682.219 2982.46 585.553V501.678C2982.46 449.081 2941.69 420.763 2882.93 420.763L2882.91 420.775ZM2922.73 508.793V551.914C2922.73 578.449 2917.51 614.076 2874.85 614.076C2845 614.076 2842.63 589.354 2842.63 567.082C2842.63 525.859 2872.49 511.64 2922.73 508.793Z" fill="white"/>
<path d="M2048.96 555.24V755.879H2067.31L2065.89 555.24V552.388L2059.23 289.882L2197.63 495.535L2199.51 498.375L2281.03 617.312H2309.5L2307.75 280.4H2290.99L2296.67 539.124L2230.33 439.143L2227.97 435.829L2125.11 280.4H2044.2" fill="white"/>
<path d="M2463.96 317.846C2413.25 317.846 2377.71 339.163 2359.23 370.436L2362.55 372.334C2380.08 341.535 2414.68 321.161 2463.96 321.161C2526.52 321.161 2549.75 378.489 2575.34 432.502L2621.78 529.18L2623.67 533.443L2665.39 623.023H2687.22L2770.45 427.776H2751.63C2714.67 427.776 2678.33 440.254 2654.16 463.475L2639.8 432.526C2613.73 375.625 2551.64 317.846 2463.96 317.846ZM2751.63 435.354H2754.04L2699.99 564.71L2658.27 473.263C2683.24 448.909 2716.75 435.301 2751.63 435.354Z" fill="white"/>
<path d="M2429.37 426.827C2430.19 426.79 2431.01 426.808 2431.82 426.881C2431.31 427.038 2419.65 428.953 2413.75 430.628C2372.37 442.338 2339.8 472.302 2339.8 526.345C2339.8 591.738 2394.29 623.023 2448.79 623.023C2503.3 623.023 2557.8 591.744 2557.8 526.345C2557.8 457.638 2504.25 426.845 2448.79 426.845L2429.37 426.827ZM2448.79 430.142C2489.56 430.142 2495.72 463.313 2495.72 500.272V551.914C2495.72 588.399 2491.92 619.678 2448.79 619.678C2405.2 619.678 2401.88 588.399 2401.88 551.914V500.272C2401.88 463.295 2407.56 430.142 2448.79 430.142Z" fill="white"/>
</svg>
