<?xml version="1.0" encoding="UTF-8" standalone="no"?>
<svg
   viewBox="0 0 1687.15 2140.95"
   version="1.1"
   id="svg44"
   sodipodi:docname="Logo Branca (Nathan).svg"
   inkscape:version="1.2.2 (b0a8486541, 2022-12-01)"
   xmlns:inkscape="http://www.inkscape.org/namespaces/inkscape"
   xmlns:sodipodi="http://sodipodi.sourceforge.net/DTD/sodipodi-0.dtd"
   xmlns="http://www.w3.org/2000/svg"
   xmlns:svg="http://www.w3.org/2000/svg">
  <sodipodi:namedview
     id="namedview46"
     pagecolor="#ffffff"
     bordercolor="#000000"
     borderopacity="0.25"
     inkscape:showpageshadow="2"
     inkscape:pageopacity="0.0"
     inkscape:pagecheckerboard="0"
     inkscape:deskcolor="#d1d1d1"
     showgrid="false"
     inkscape:zoom="0.39748711"
     inkscape:cx="842.79463"
     inkscape:cy="1072.9908"
     inkscape:window-width="1920"
     inkscape:window-height="941"
     inkscape:window-x="0"
     inkscape:window-y="0"
     inkscape:window-maximized="1"
     inkscape:current-layer="svg44" />
  <defs
     id="defs4">
    <style
       id="style2">.cls-1{fill:none;}.cls-2{fill:#fff;}</style>
  </defs>
  <g
     id="Desenho">
    <path
       id="path18"
       class="cls-1"
       d="M861.79,1730.9c-24.8.95-141.2-318.74,0-599,141-280.26,467.49-377.77,479.29-359.82,10.39,15.11-217,108.37-359.12,359.82-167.63,296.32-96.33,598.06-120.17,599Z"
       transform="translate(11.02 4.14)" />
    <path
       id="path19"
       class="cls-1"
       d="M867.92,1730.67c26.21.71,140.49-319.69,0-599C727.21,852.35,401.61,752.48,388.39,771.84c-11.33,16.53,211.55,111.91,353.69,365.26,166.69,296.78,100.35,592.62,125.84,593.57Z"
       transform="translate(11.02 4.14)" />
    <path
       id="path20"
       class="cls-2"
       d="M982,832.52c0,66.11-53.83,119.7-119.94,119.7s-119.94-53.59-119.94-119.7a119.94,119.94,0,0,1,239.88,0Z"
       transform="translate(11.02 4.14)" />
    <g
       id="g42">
      <path
         id="path21"
         class="cls-2"
         d="M821.18,588.86a137.88,137.88,0,0,0,34.7,91.61l8.74,9.2V547.77l12,128.92a138.63,138.63,0,0,0-12-188.65A138.94,138.94,0,0,0,821.18,588.86Z"
         transform="translate(11.02 4.14)" />
      <path
         id="path22"
         class="cls-2"
         d="M358.17,827.56a125.49,125.49,0,0,1,73.43,49.82l6.14,9.68-124.9-30,111,37.78a125.2,125.2,0,0,1-163.39-50.29A125.19,125.19,0,0,1,358.17,827.56Z"
         transform="translate(11.02 4.14)" />
      <path
         id="path23"
         class="cls-2"
         d="M1327.39,1162.83a194.22,194.22,0,0,1-54.54-14.4h0c-43.92-20.78-70.6-48.88-90.2-76.26-12.75-17-23.84-36.6-35.18-54.78l-13.93-21.72c25.74,5.66,50.06,16.29,73.43,28.09,31.17,15.82,61.39,34,94.45,46,38.95,13.93,82.87,10.86,121.35-4.49h0l2.13-.71-2.13.71h0c-39.66,12-82.87,10.86-117.81-5.67-30.7-14.16-58.32-34.23-89-53.12-14.88-9.21-30.7-18.18-47.46-25.5,20.07-5.43,42-7.08,63-5.43,39,1.89,73.19,11.1,98.45,15.35h0c5,.7,10.39,1.41,16.06,1.88,5.19.48,38.49,3.07,49.35,3.78h0c31.87,1.89,70.12.95,115.45-12.75h.47a1.46,1.46,0,0,1,1-.23h0c1.18-.48,2.36-1,3.3-1.42h0l3.55-1.42h0a4,4,0,0,0,1.18-.47h.47c-.24,0,0,.24.23.47h0c0,.48.24.71.24,1.18h0c.47,1.18.71,2.37,1.18,3.55h0c.24.94.71,2.12.95,3.3h0c0,.47.23.95.23,1.42h0V991h0c8,46.27-16.53,105.54-73.43,143.31h0c-34,22.67-77,33.77-122.77,28.57h0Z"
         transform="translate(11.02 4.14)" />
      <path
         id="path24"
         class="cls-2"
         d="M1371.07,827.56a124.27,124.27,0,0,0-73.2,49.82l-6.13,9.68,124.66-30-111,37.78a126,126,0,0,0,84,9.21,124.43,124.43,0,0,0,79.34-59.5A125.19,125.19,0,0,0,1371.07,827.56Z"
         transform="translate(11.02 4.14)" />
      <path
         id="path25"
         class="cls-2"
         d="M403,1162.83a196.29,196.29,0,0,0,54.54-14.4h0c43.68-20.78,70.6-48.88,90.19-76.26,12.52-17,23.85-36.6,35-54.78l13.93-21.72c-25.5,5.66-50.06,16.29-73.43,28.09-31.17,15.82-61.39,34-94.21,46-38.95,13.93-83.11,10.86-121.59-4.49h0c-.71-.24-1.18-.47-1.89-.71l2.12.71h0c39.67,12,82.88,10.86,117.59-5.67,30.69-14.16,58.55-34.23,89.24-53.12A348.24,348.24,0,0,1,561.93,981a189.78,189.78,0,0,0-63.28-5.43c-38.72,1.89-73.19,11.1-98.22,15.35h0c-4.95.7-10.38,1.41-16.05,1.88-5.2.48-38.72,3.07-49.35,3.78h0c-32.11,1.89-70.36.95-115.69-12.75h-.24a2.16,2.16,0,0,0-1.18-.23h0c-.94-.48-2.12-1-3.3-1.42h0c-1.18-.47-2.13-.94-3.31-1.42h0c-.47,0-.71-.23-1.18-.47h-.47a.71.71,0,0,1-.24.47h0c0,.48-.47.71-.47,1.18h0c-.23,1.18-.71,2.37-.94,3.55h0c-.48.94-.71,2.12-1.18,3.3h0c0,.47-.24.95-.24,1.42h0V991h0c-8,46.27,16.53,105.54,73.43,143.31h0c34,22.67,77.21,33.77,122.78,28.57Z"
         transform="translate(11.02 4.14)" />
      <path
         id="path26"
         class="cls-2"
         d="M1597.49,671.73A206.75,206.75,0,0,1,1564,717.06h0c-35.66,33.06-71.54,47.46-104.36,55.72-20.31,5.43-42.5,8.5-63.75,12.28l-25.26,5c14.63-21.72,33.52-40.61,53.36-57.85,26.2-23.14,54.06-44.62,77.44-70.83,27.39-30.93,40.84-73,40.61-114.51h0v0h0c-3.54,41.55-20.54,81.22-48.64,107.43-24.55,23.37-53.6,41.79-82.4,63.27-13.93,10.39-28.1,21.73-41.08,34.71,2.36-20.77,9-41.55,18.18-60.68,16-35.41,37.3-64,50.52-85.94h0c2.6-4.25,5.2-9,7.8-13.93,2.36-4.72,17-34.94,21.72-44.62h0c13.46-29.05,26.68-64.93,30.69-112.15h0c0-.24,0-.24.24-.48h0v-.94h0V430h0v-3.54h0V425h0c.23-.24.23-.47,0-.47h0c.23.23.47,0,.71,0h1.18a18.32,18.32,0,0,0,3.54.23h0c1.18.24,2.36.24,3.54.47h0a3,3,0,0,1,1.42.24h0a.84.84,0,0,0,.7.24h0c46,9.68,92.09,54.3,106,121.12h0c8.5,39.9,3.07,84-18.66,124.66Z"
         transform="translate(11.02 4.14)" />
      <path
         id="path27"
         class="cls-2"
         d="M131.75,671.73a206.44,206.44,0,0,0,33.52,45.33h0c35.65,33.06,71.54,47.46,104.36,55.72,20.31,5.43,42.5,8.5,63.75,12.28l25.26,5c-14.64-21.72-33.52-40.61-53.36-57.85-26.2-23.14-54.07-44.62-77.44-70.83-27.39-30.93-40.85-73-40.61-114.51h0v0h0c3.54,41.55,20.54,81.22,48.64,107.43,24.55,23.37,53.59,41.79,82.4,63.27,13.93,10.39,28.1,21.73,41.08,34.71-2.36-20.77-9-41.55-18.18-60.68-16.05-35.41-37.3-64-50.53-85.94h0c-2.59-4.25-5.19-9-7.79-13.93-2.36-4.72-17-34.94-21.72-44.62h0c-13.46-29.05-26.68-64.93-30.69-112.15h0c0-.24,0-.24-.24-.48h0v-.94h0V430h0v-3.54h0V425h0c-.23-.24-.23-.47,0-.47h0c-.23.23-.47,0-.71,0h-1.18a18.32,18.32,0,0,1-3.54.23h0c-1.18.24-2.36.24-3.54.47h0a3,3,0,0,0-1.42.24h0a.85.85,0,0,1-.71.24h0c-46,9.68-92.08,54.3-106,121.12h0c-8.5,39.9-3.07,84,18.66,124.66Z"
         transform="translate(11.02 4.14)" />
      <path
         id="path28"
         class="cls-2"
         d="M1454.65,1248.54S1236,1339,1106.16,1296.94c-114.52-36.83-89.72-98-84.29-117.82,15.34-55,100.11-74.84,142.6-22.9,102,125.14,290.18,92.32,290.18,92.32Z"
         transform="translate(11.02 4.14)" />
      <path
         id="path29"
         class="cls-2"
         d="M274.35,1249.25s218.4,90.66,348.5,48.63c114.27-37.06,89.72-98,84.29-117.81-15.35-55-100.11-75.08-142.61-23.14-102.24,125.14-290.18,92.32-290.18,92.32Z"
         transform="translate(11.02 4.14)" />
      <path
         id="path30"
         class="cls-2"
         d="M751.76,456.4A155.58,155.58,0,0,1,762.15,497h0c2.12,36.13-6.61,63.51-17.47,86.18-6.38,14.4-15.11,28.57-22.91,42.5l-9.2,17c-5.67-18.65-7.32-38.49-8-58.08-.95-26,0-52.18-4-77.92-5-30.46-22.67-58.08-46.75-77.44h0c-.24-.47-.71-.71-1.18-1.18.47.47.94.71,1.18,1.18h0c22.19,21.48,37.06,50.05,39,78.62,1.66,25-1.41,50.53-2.59,77.21a253.55,253.55,0,0,0,.47,40.14A143.46,143.46,0,0,1,664.16,586c-12.74-26-19.12-51.7-25.26-69.65h0c-1.42-3.54-2.83-7.32-4.72-11.09-1.42-3.55-11.81-26.21-15.11-33.53h0c-10.39-21.49-24.79-46-50.06-70.6h0v-.23h0l-.7-.71h0a6.29,6.29,0,0,1-1.89-1.66h0c-.71-.47-1.42-1.18-2.13-1.65h0l-.71-.71h0c-.23,0-.23-.23-.47-.23h0c.24.23.24,0,.24-.24h0c.47-.23.47-.47.71-.71h0a13.93,13.93,0,0,0,1.88-1.89h0a14.53,14.53,0,0,1,1.89-1.88h0a3.21,3.21,0,0,1,.95-.71h0l.23-.24h0c27.39-22,74.85-27.39,120-3.78h0c26.91,13.93,49.81,38,62.8,69.65Z"
         transform="translate(11.02 4.14)" />
      <path
         id="path31"
         class="cls-2"
         d="M978.42,456.4A147,147,0,0,0,968,497h0c-2.12,36.13,6.38,63.75,17.24,86.42,6.61,14.16,15.35,28.57,23.14,42.26l9.21,17c5.43-18.65,7.32-38.49,8-57.85.95-26.2,0-52.18,4-77.91,4.72-30.46,22.66-58.08,46.51-77.68h0c.47-.24.71-.71,1.18-.95-.24.48-.71.71-1.18,1.18h0c-22.19,21.49-37.07,50.06-38.72,78.63-1.89,25,1.42,50.29,2.6,77.21a283.53,283.53,0,0,1-.48,39.9c10.86-11.1,19.6-24.79,26.21-39.2,12.75-25.73,19.13-51.47,25.5-69.41h0c1.18-3.54,2.83-7.32,4.49-11.1,1.65-3.54,11.8-26.21,15.34-33.53h0c10.16-21.48,24.56-46,49.82-70.59h0c.24-.24.24-.24.24-.47h0c.24,0,.24-.24.47-.48h0c.71-.47,1.42-1.18,2.13-1.65h0c.7-.47,1.41-1.18,2.12-1.65h0l.71-.71h0a.24.24,0,0,1,.24-.24h0c-.24,0-.24-.23-.24-.47h0c-.24,0-.47-.47-.71-.47h0c-.71-.71-1.18-1.42-1.89-2.13h0l-1.89-1.88h0c-.23,0-.47-.48-.7-.48h0c-.24-.23-.24-.23-.48-.23h0c-27.39-22-74.84-27.39-119.7-3.78h0c-26.92,13.93-49.82,38-62.81,69.65h0Z"
         transform="translate(11.02 4.14)" />
      <path
         id="path32"
         class="cls-2"
         d="M830.15,243.43c-4.25,2.6,17,26.21,11.09,56.2-3.77,19.59-16.29,26.2-28.09,44.86-10.15,16.05-20.31,42-16.77,84.29A126.4,126.4,0,0,1,757,378.25c-14.16-34.24-8.26-64.93-5.43-78.62,8.5-42.5,27.63-45.34,39.2-84.29,13.93-47.22-8-61.86,0-101.29C807,35.9,915.62-9.44,925.53,1.66c6.85,7.32-34.47,34.24-39.19,90-3.78,42.5,16.06,78.38,22.43,89.95,20.31,36.6,34.94,33.77,50.53,61.86,34.23,61.15,9.21,155.83-22.43,162.92-12.28,2.59-24.32-8-28.1-11.34-25-21.95-9.68-52.41-28.1-95.38-15.81-37.31-46-59.27-50.52-56.2Z"
         transform="translate(11.02 4.14)" />
      <path
         id="path33"
         class="cls-2"
         d="M1303.3,357.47s18.89,41.32,5,67.76c-8.5,15.59-17.94,15.12-29,33.77-9.44,15.58-19.36,43.44-9.91,53.36,13.22,13.22,63.74-4.25,92.08-38.72,4-5,32.82-41.09,24.32-82.4-6.38-30.46-26-29.75-38.73-67.77-3.54-10.62-15.58-46.51,0-77.44,13.7-27.62,41.56-36.12,38.73-43.68-2.6-6.61-27.39-5.9-48.41,0-58.08,16.06-107,75.32-121.12,140.48-12.28,55.72-.47,121.6,19.36,125.85,6.61,1.65,13.7-4,14.4-4.72,13-10.63,5-30.23,9.69-53.36,6.13-29.75,43.67-53.13,43.67-53.13Z"
         transform="translate(11.02 4.14)" />
      <path
         id="path34"
         class="cls-2"
         d="M1191.86,637.26c-25.26,28.1-39.9,65.4-41.55,104.59v14.64L1255.85,638,1169.2,755.55c34-4.49,65.63-21.49,89.48-48.17,28.33-31.87,43.44-75.08,41.56-119.23-40.85-.47-80,17.23-108.38,49.11Z"
         transform="translate(11.02 4.14)" />
      <path
         id="path35"
         class="cls-2"
         d="M537.38,637.26c25.26,28.1,39.9,65.4,41.55,104.59v14.64L473.39,638,560,755.55c-34-4.49-65.64-21.49-89.48-48.17C442.22,675.51,427.11,632.3,429,588.15c40.85-.47,80,17.23,108.38,49.11Z"
         transform="translate(11.02 4.14)" />
      <path
         id="path36"
         class="cls-2"
         d="M425.7,357.47s-18.89,41.32-5,67.76c8.5,15.59,17.94,15.12,29,33.77,9.44,15.58,19.36,43.44,9.68,53.36-13,13.22-63.51-4.25-91.84-38.72-4-5-32.82-41.09-24.32-82.4,6.37-30.46,26-29.75,38.72-67.77,3.54-10.62,15.58-46.51,0-77.44-13.7-27.62-41.56-36.12-38.72-43.68,2.59-6.61,27.38-5.9,48.4,0,58.08,16.06,107,75.32,121.12,140.48,12.28,55.72.47,121.6-19.36,125.85-6.61,1.65-13.69-4-14.64-4.72-12.75-10.63-4.72-30.23-9.68-53.36-5.9-29.75-43.44-53.13-43.44-53.13Z"
         transform="translate(11.02 4.14)" />
    </g>
    <path
       id="path37"
       class="cls-2"
       d="M861.23,1503.26c-8-71.68-22.23-142.67-39.44-196.41-7.32-22.85-7.34-22.56,5.15-66.31,8-28.07,25.28-74.25,34.4-92l4-7.76,9.38,21.43c19.69,45,38.32,106.49,35,115.49-5.6,15.06-20.24,69.5-26.41,98.24-7.57,35.24-16.15,91-18.84,122.33l-1.64,19Z"
       transform="translate(11.02 4.14)" />
    <path
       id="path38"
       class="cls-2"
       d="M795.92,1234.09c-29.48-74.49-75.31-152.92-127.63-218.4-62.94-78.76-127-137.1-233.87-213-31.41-22.31-36.28-26.42-31.34-26.39,6,0,36.23,8.29,57.78,15.76C567.28,829,686.07,908,762.63,992.86c35.7,39.57,56.82,68,81.27,109.57l13.79,23.41-7,13.87c-14.28,28.36-30.71,73-41.32,112.36l-2.57,9.54Z"
       transform="translate(11.02 4.14)" />
    <path
       id="path39"
       class="cls-2"
       d="M915.28,1234c-6.58-23.65-21.3-62.91-32.24-86l-10.61-22.39,8.91-15.64c73.54-129,200.79-238.56,352.7-303.61,35.8-15.33,91.19-32,91.19-27.41,0,.6-15.57,11.66-34.6,24.58-73.89,50.17-123.23,90.12-173,140.09-83.64,84-144.52,174.85-186.94,278.91-5,12.13-9.6,22.71-10.34,23.5s-3-4.62-5.1-12Z"
       transform="translate(11.02 4.14)" />
    <path
       id="path40"
       class="cls-2"
       d="M873.35,1660.26c-3.16-129.47,8.64-236.82,37.22-338.5l6.48-23.06,2.44,13.42c18.41,101.4,11.25,232.27-18.25,333.67-6.86,23.58-21.51,62.1-24.91,65.5-.93.93-2.27-22-3-51Z"
       transform="translate(11.02 4.14)" />
    <path
       id="path41"
       class="cls-2"
       d="M846.22,1695.85c-19.07-45.33-33.29-104.52-41.71-173.54-5-41-5-129.87,0-171.47,2-16.55,4.32-30.81,5.16-31.71,1.73-1.81,11.15,31.45,19.09,67.35,18.25,82.57,25.83,164.71,24.74,268.19l-.61,57.16Z"
       transform="translate(11.02 4.14)" />
  </g>
  <g
     id="Nome">
    <path
       id="path5"
       class="cls-2"
       d="M1450.45,1865.57c-38.9,0-66.36,21.24-66.36,57.54a39.06,39.06,0,0,0,.37,7.11l9-.38a36.72,36.72,0,0,1-.37-6.73c0-35.18,30.8-50.15,57.37-50.15,28.44,0,31.44,21.7,31.44,49v10.48h-11.23c-44.54,0-101.42,8.24-101.42,48.65,0,32.19,28.82,44.15,74.85,44.15,12.72,0,34.8-9,37.8-32.55,0,74.09,54.63,139.95,138.46,139.95h0c60.25,0,59.12-5.38,0-5.38-74.1,0-91.31-55.25-91.31-131.59v-66.23c0-41.54-32.19-63.9-78.59-63.9Zm31.44,69.51v34.05c0,21-4.12,49.09-37.8,49.09-23.58,0-25.45-19.52-25.45-37.11,0-32.55,23.58-43.79,63.25-46Z"
       transform="translate(11.02 4.14)" />
    <path
       id="path11"
       class="cls-2"
       d="M794.45,1757h3.75v212.55"
       transform="translate(11.02 4.14)" />
    <path
       id="path12"
       class="cls-2"
       d="M791.94,1971.76v158.45h14.49l-1.12-158.45v-2.25l-5.24-207.31,109.27,162.41,1.49,2.24,64.37,93.93h22.48l-1.39-266.07H983.06L987.55,1959l-52.39-79-1.87-2.61-81.2-122.75H788.2"
       transform="translate(11.02 4.14)" />
    <path
       id="path13"
       class="cls-2"
       d="M108.9,1754.71a108.9,108.9,0,1,0,0,217.79h4.86v48.28h108.9a193,193,0,0,0,21.33-1.13c38.54-4.86,66.6-27.31,66.6-73,0-47.15-33.3-66.61-82.32-69.6,25.82-2.62,74.1-13.85,74.1-62.5,0-34.8-27.69-53.5-63.24-58.37-7.49-1.12-25.46-1.5-32.19-1.5Zm0,8.62h4.86v206.93H108.9c-58.75,0-93.74-47.9-93.74-106.65S75.05,1763.33,108.9,1763.33Zm51.64-.49,25.45-.32c13.1.75,26.19-.5,31.43,1.37,29.56,6.36,36.67,27.88,36.67,50.7,0,37.05-13.47,53.14-36.67,58.75l-2.25.38c-7.85,1.87-15.34,2.24-54.63,2.61Zm0,116.11c42.28,0,47.52,0,53.88.75h2.25c34.42,4.49,45.66,26.94,45.66,66.61,0,36.67-14.6,62.87-44.16,68.48-6.36,1.87-18.72,2.62-28.45,3l-29.18.37V1879Z"
       transform="translate(11.02 4.14)" />
    <path
       id="path14"
       class="cls-2"
       d="M1119.65,1784.28c-40,0-68.11,16.83-82.7,41.53l2.62,1.5c13.84-24.32,41.16-40.41,80.08-40.41,49.39,0,67.73,45.27,87.94,87.93l36.67,76.35,1.49,3.36,32.94,70.73h17.24l65.72-154.19h-14.86c-29.19,0-57.88,9.85-77,28.19l-11.35-24.44c-20.58-44.9-69.6-90.55-138.83-90.55Zm227.14,92.8h1.88L1306,1979.24,1273.07,1907A105.34,105.34,0,0,1,1346.79,1877.08Z"
       transform="translate(11.02 4.14)" />
    <path
       id="path15"
       class="cls-2"
       d="M406,1870.35a15.36,15.36,0,0,1,1.94,0h0c-.41.12-9.61,1.64-14.28,3-32.66,9.25-58.38,32.93-58.38,75.59,0,51.64,43,76.34,86.07,76.34s86.07-24.7,86.07-76.34c0-54.27-42.29-78.58-86.07-78.58Zm15.34,2.61c32.18,0,37.05,26.2,37.05,55.39v40.78c0,28.82-3,53.52-37.05,53.52-34.43,0-37.05-24.7-37.05-53.52v-40.78C384.31,1899.16,388.8,1873,421.36,1873Z"
       transform="translate(11.02 4.14)" />
    <path
       id="path16"
       class="cls-2"
       d="M613,1865.57c-38.9,0-66.36,21.24-66.36,57.54a39.06,39.06,0,0,0,.37,7.11l9-.38a36.72,36.72,0,0,1-.37-6.73c0-35.18,30.8-50.15,57.37-50.15,28.44,0,31.44,21.7,31.44,49v10.48H633.17c-44.53,0-101.42,8.24-101.42,48.65,0,32.19,28.82,44.15,74.85,44.15,12.72,0,34.8-9,37.8-32.55,0,74.09,54.63,139.95,138.46,139.95h0c60.25,0,59.12-5.38,0-5.38-74.1,0-91.31-55.25-91.31-131.59v-66.23c0-41.54-32.19-63.9-78.59-63.9Zm31.44,69.51v34.05c0,21-4.12,49.09-37.8,49.09-23.58,0-25.44-19.52-25.44-37.11C581.16,1948.56,604.73,1937.32,644.4,1935.08Z"
       transform="translate(11.02 4.14)" />
    <path
       id="path17"
       class="cls-2"
       d="M1092.33,1870.35a15.25,15.25,0,0,1,1.93,0h0c-.4.12-9.61,1.64-14.27,3-32.66,9.25-58.38,32.93-58.38,75.59,0,51.64,43,76.34,86.07,76.34s86.07-24.7,86.07-76.34c0-54.27-42.29-78.58-86.07-78.58Zm15.34,2.61c32.18,0,37,26.2,37,55.39v40.78c0,28.82-3,53.52-37,53.52-34.43,0-37.05-24.7-37.05-53.52v-40.78C1070.62,1899.16,1075.11,1873,1107.67,1873Z"
       transform="translate(11.02 4.14)" />
  </g>
</svg>
